<mxfile host="app.diagrams.net" modified="2023-11-08T03:51:38.363Z" agent="Mozilla/5.0 (Windows NT 10.0; Win64; x64) AppleWebKit/537.36 (KHTML, like Gecko) Chrome/119.0.0.0 Safari/537.36" version="22.0.8" etag="6aFh_LJlnsd9gAEKzwCy" type="github">
  <diagram name="Page-1" id="RsAhMcpJ6p4ktxse3hXg">
    <mxGraphModel>
      <root>
        <mxCell id="0" />
        <mxCell id="1" parent="0" />
      </root>
    </mxGraphModel>
  </diagram>
</mxfile>
